<svg width="29" height="24" viewBox="0 0 29 24" fill="none" xmlns="http://www.w3.org/2000/svg">
<path d="M2.00133 0C1.00727 0 0.201416 0.805856 0.201416 1.79991C0.201416 2.79396 1.00727 3.59982 2.00133 3.59982H4.19581L4.74579 5.79974C4.75157 5.82518 4.75789 5.85041 4.76473 5.87543L7.20762 15.647L5.60106 17.2536C3.3333 19.5213 4.93941 23.3988 8.14651 23.3988H23.6003C24.5942 23.3988 25.4002 22.593 25.4002 21.5989C25.4002 20.6048 24.5942 19.799 23.6003 19.799H8.14653L9.94642 17.9991H21.8003C22.4821 17.9991 23.1053 17.6139 23.4102 17.0041L28.8099 6.20467C29.0889 5.64673 29.0592 4.98411 28.7313 4.45346C28.4031 3.92281 27.8239 3.59982 27.2001 3.59982H7.90644L7.34731 1.36336C7.147 0.562112 6.42707 0 5.60115 0H2.00133Z" fill="white"/>
</svg>
