<svg width="137" height="44" viewBox="0 0 137 44" fill="none" xmlns="http://www.w3.org/2000/svg">
<path d="M9.64327 29.1898C6.72505 29.1898 4.38829 28.6375 2.63297 27.5331C0.877658 26.4066 0 24.6948 0 22.3976C0 21.1827 0.208444 20.255 0.625331 19.6145C1.04222 18.9739 1.65658 18.6536 2.46841 18.6536C3.06083 18.6536 3.54354 18.8082 3.91655 19.1175C4.28955 19.4267 4.47606 19.8243 4.47606 20.3102C4.47606 20.752 4.44314 21.1386 4.37732 21.4699C4.37732 21.5582 4.35538 21.7128 4.31149 21.9337C4.28955 22.1546 4.27858 22.3865 4.27858 22.6295C4.27858 23.6235 4.77226 24.3635 5.75963 24.8494C6.76894 25.3353 8.17319 25.5783 9.97239 25.5783C11.8374 25.5783 13.2965 25.247 14.3497 24.5843C15.4029 23.8996 15.9295 22.9498 15.9295 21.7349C15.9295 20.9839 15.6881 20.3434 15.2054 19.8133C14.7227 19.261 14.1193 18.8082 13.3953 18.4548C12.6712 18.0793 11.6509 17.6265 10.3344 17.0964C8.64493 16.4337 7.26262 15.8042 6.18749 15.2078C5.1343 14.6114 4.22373 13.8052 3.45578 12.7892C2.70977 11.751 2.33676 10.4699 2.33676 8.94578C2.33676 7.35542 2.75365 5.94177 3.58743 4.70482C4.44314 3.46787 5.66089 2.50703 7.24068 1.82229C8.8424 1.13755 10.7184 0.79518 12.8687 0.79518C14.4704 0.79518 15.9405 1.03815 17.2789 1.5241C18.6173 1.98795 19.6815 2.70582 20.4714 3.67771C21.2832 4.6496 21.6891 5.84237 21.6891 7.25602C21.6891 8.64759 21.4807 9.69679 21.0638 10.4036C20.6469 11.1104 20.0325 11.4639 19.2207 11.4639C18.6502 11.4639 18.1675 11.2871 17.7726 10.9337C17.3996 10.5803 17.2131 10.1606 17.2131 9.6747C17.2131 9.25502 17.246 8.86847 17.3118 8.51506C17.3776 7.85241 17.4105 7.43273 17.4105 7.25602C17.4105 6.32831 16.9607 5.62149 16.0611 5.13554C15.1615 4.6496 14.0425 4.40663 12.7041 4.40663C10.8171 4.40663 9.369 4.76004 8.35969 5.46687C7.37233 6.15161 6.87864 7.12349 6.87864 8.38253C6.87864 9.22189 7.13097 9.93976 7.63562 10.5361C8.16222 11.1325 8.80949 11.6295 9.57744 12.0271C10.3454 12.4247 11.4205 12.8996 12.8028 13.4518C14.4704 14.1365 15.8088 14.755 16.8181 15.3072C17.8274 15.8594 18.6831 16.6104 19.3853 17.5602C20.1093 18.51 20.4714 19.6807 20.4714 21.0723C20.4714 23.6787 19.484 25.6888 17.5093 27.1024C15.5565 28.494 12.9345 29.1898 9.64327 29.1898Z" fill="white"/>
<path d="M37.6382 21.5361C37.9234 21.5361 38.1428 21.6687 38.2964 21.9337C38.4719 22.1988 38.5597 22.5633 38.5597 23.0271C38.5597 23.9106 38.3512 24.5954 37.9344 25.0813C36.9909 26.252 35.9596 27.2129 34.8406 27.9639C33.7216 28.7149 32.438 29.0904 30.9899 29.0904C26.5138 29.0904 24.2758 25.9207 24.2758 19.5813C24.2758 18.6094 24.3087 17.6265 24.3745 16.6325H23.091C22.4327 16.6325 21.9829 16.511 21.7416 16.2681C21.5222 16.0251 21.4125 15.6386 21.4125 15.1084C21.4125 13.8715 21.9061 13.253 22.8935 13.253H24.7695C25.1425 10.8233 25.713 8.60341 26.4809 6.59337C27.2489 4.58333 28.1704 2.98193 29.2455 1.78916C30.3426 0.596385 31.5165 0 32.7672 0C33.6887 0 34.4128 0.408634 34.9394 1.2259C35.4659 2.04317 35.7292 3.07028 35.7292 4.30723C35.7292 7.73092 34.3031 10.7129 31.4507 13.253H35.1368C35.4879 13.253 35.7402 13.3303 35.8938 13.4849C36.0474 13.6396 36.1242 13.9267 36.1242 14.3464C36.1242 15.8705 34.8845 16.6325 32.4051 16.6325H28.3898C28.346 17.7369 28.324 18.5984 28.324 19.2169C28.324 21.5141 28.5873 23.1265 29.1139 24.0542C29.6624 24.9819 30.5182 25.4458 31.6811 25.4458C32.6245 25.4458 33.4583 25.1586 34.1824 24.5843C34.9064 24.01 35.7622 23.1486 36.7495 22C37.0128 21.6908 37.309 21.5361 37.6382 21.5361ZM31.8785 3.18072C31.5494 3.18072 31.1764 3.6004 30.7595 4.43976C30.3646 5.25703 29.9806 6.40562 29.6076 7.88554C29.2565 9.34337 28.9603 10.9669 28.719 12.756C30.0135 11.6295 30.9789 10.3705 31.6152 8.97891C32.2735 7.56526 32.6026 6.28414 32.6026 5.13554C32.6026 3.83233 32.3612 3.18072 31.8785 3.18072Z" fill="white"/>
<path d="M39.9281 29.0904C38.5678 29.0904 37.4816 28.5934 36.6698 27.5994C35.858 26.6054 35.4521 25.3022 35.4521 23.6898C35.4521 21.9227 35.858 20.255 36.6698 18.6867C37.4816 17.0964 38.5568 15.8263 39.8952 14.8765C41.2556 13.9046 42.6927 13.4187 44.2067 13.4187C44.6894 13.4187 45.0076 13.5181 45.1612 13.7169C45.3367 13.8936 45.4793 14.2249 45.589 14.7108C46.0498 14.6225 46.5325 14.5783 47.0371 14.5783C48.1123 14.5783 48.6498 14.9649 48.6498 15.738C48.6498 16.2018 48.4853 17.3062 48.1562 19.0512C47.6515 21.5914 47.3992 23.3584 47.3992 24.3524C47.3992 24.6837 47.476 24.9488 47.6296 25.1476C47.8051 25.3464 48.0245 25.4458 48.2878 25.4458C48.7047 25.4458 49.2094 25.1807 49.8018 24.6506C50.3942 24.0984 51.1951 23.2149 52.2044 22C52.4677 21.6908 52.7639 21.5361 53.093 21.5361C53.3782 21.5361 53.5976 21.6687 53.7512 21.9337C53.9268 22.1988 54.0145 22.5633 54.0145 23.0271C54.0145 23.9106 53.8061 24.5954 53.3892 25.0813C52.4896 26.2078 51.5351 27.1576 50.5258 27.9307C49.5165 28.7038 48.5401 29.0904 47.5967 29.0904C46.8726 29.0904 46.2034 28.8474 45.589 28.3614C44.9966 27.8534 44.5468 27.1687 44.2396 26.3072C43.0987 28.1626 41.6615 29.0904 39.9281 29.0904ZM41.113 25.744C41.5957 25.744 42.0564 25.4568 42.4953 24.8825C42.9341 24.3082 43.2522 23.5462 43.4497 22.5964L44.6675 16.5C43.7459 16.5221 42.8902 16.8755 42.1003 17.5602C41.3324 18.2229 40.718 19.1064 40.2572 20.2108C39.7965 21.3153 39.5661 22.4859 39.5661 23.7229C39.5661 24.4076 39.6977 24.9157 39.961 25.247C40.2463 25.5783 40.6302 25.744 41.113 25.744Z" fill="white"/>
<path d="M64.6362 18.0241C65.1189 18.0241 65.5248 18.2008 65.8539 18.5542C66.205 18.8855 66.3805 19.3052 66.3805 19.8133C66.3805 20.1004 66.3147 20.4096 66.183 20.741C65.832 21.5582 65.3383 22.243 64.702 22.7952C64.0657 23.3474 63.3636 23.6235 62.5956 23.6235C61.9812 23.6235 61.4547 23.4026 61.0158 22.9608C60.5989 22.5191 60.3905 21.9227 60.3905 21.1717C60.3905 20.752 60.4124 20.2992 60.4563 19.8133C60.5002 19.4598 60.5221 19.2169 60.5221 19.0843C60.5221 18.9076 60.4783 18.7751 60.3905 18.6867C60.3247 18.5984 60.2369 18.5542 60.1272 18.5542C59.82 18.5542 59.4031 18.9297 58.8765 19.6807C58.3499 20.4096 57.8233 21.3815 57.2967 22.5964C56.7702 23.8112 56.3423 25.0924 56.0132 26.4398C55.7718 27.5 55.4975 28.2068 55.1904 28.5602C54.8832 28.9137 54.3785 29.0904 53.6764 29.0904C52.8426 29.0904 52.2502 28.6486 51.8992 27.7651C51.57 26.8815 51.4055 25.4679 51.4055 23.5241C51.4055 20.6526 51.8114 17.9247 52.6232 15.3404C52.8207 14.6998 53.1388 14.2359 53.5777 13.9488C54.0384 13.6396 54.6747 13.4849 55.4866 13.4849C55.9254 13.4849 56.2326 13.5402 56.4081 13.6506C56.5837 13.761 56.6714 13.9709 56.6714 14.2801C56.6714 14.6335 56.5069 15.4287 56.1777 16.6657C55.9583 17.5492 55.7828 18.3223 55.6511 18.9849C55.5195 19.6476 55.4098 20.4649 55.322 21.4367C56.0461 19.5371 56.8579 17.991 57.7575 16.7982C58.6571 15.6054 59.5348 14.755 60.3905 14.247C61.2462 13.739 62.0251 13.4849 62.7273 13.4849C63.3636 13.4849 63.8463 13.6727 64.1754 14.0482C64.5265 14.4016 64.702 14.9317 64.702 15.6386C64.702 16.0582 64.5813 16.8534 64.34 18.0241H64.6362Z" fill="white"/>
<path d="M102.445 1.4247C103.125 1.55723 103.629 1.78916 103.958 2.12048C104.31 2.45181 104.485 2.83835 104.485 3.28012C104.485 4.00903 104.277 4.53916 103.86 4.87048C103.465 5.20181 102.829 5.33434 101.951 5.26807C99.9761 5.11345 98.4293 5.01405 97.3102 4.96988C96.2132 4.90361 94.765 4.85944 92.9658 4.83735C92.154 8.9016 91.408 12.9879 90.7278 17.0964C90.4865 18.5984 90.2341 20.3434 89.9708 22.3313C89.7075 24.2972 89.532 25.8875 89.4442 27.1024C89.4003 27.743 89.1371 28.24 88.6543 28.5934C88.1716 28.9247 87.5902 29.0904 86.91 29.0904C86.1859 29.0904 85.6264 28.9137 85.2315 28.5602C84.8365 28.2068 84.6391 27.743 84.6391 27.1687C84.6391 26.6386 84.7158 25.7661 84.8694 24.5512C85.045 23.3143 85.2424 22.0221 85.4619 20.6747C85.7032 19.3273 85.8897 18.1566 86.0214 17.1626C86.2627 15.4839 86.537 13.8163 86.8442 12.1596C87.1513 10.503 87.4585 8.93474 87.7657 7.45482C87.8315 7.12349 87.9083 6.74799 87.9961 6.32831C88.0839 5.88655 88.1826 5.4006 88.2923 4.87048C86.142 4.93675 84.4525 5.11345 83.2238 5.4006C81.9951 5.68775 81.1174 6.09639 80.5909 6.62651C80.0862 7.13454 79.8339 7.79719 79.8339 8.61446C79.8339 9.36546 80.0533 10.0833 80.4921 10.7681C80.5799 10.9227 80.6238 11.0884 80.6238 11.2651C80.6238 11.6847 80.3714 12.0823 79.8668 12.4578C79.3841 12.8112 78.8794 12.988 78.3528 12.988C77.9798 12.988 77.6726 12.8775 77.4313 12.6566C76.9925 12.2811 76.6304 11.751 76.3452 11.0663C76.0599 10.3594 75.9173 9.56426 75.9173 8.68072C75.9173 6.80321 76.5207 5.3012 77.7275 4.1747C78.9562 3.0261 80.8103 2.18675 83.2896 1.65663C85.791 1.1265 88.9944 0.861444 92.9 0.861444C95.3136 0.861444 97.2334 0.905621 98.6596 0.993974C100.108 1.08233 101.369 1.2259 102.445 1.4247Z" fill="white"/>
<path d="M113.122 18.753C113.407 18.753 113.627 18.8966 113.78 19.1837C113.934 19.4709 114.011 19.8353 114.011 20.2771C114.011 21.3373 113.692 21.9669 113.056 22.1657C111.74 22.6295 110.292 22.8946 108.712 22.9608C108.295 24.8163 107.472 26.3072 106.243 27.4337C105.015 28.5382 103.621 29.0904 102.063 29.0904C100.747 29.0904 99.617 28.7701 98.6735 28.1295C97.752 27.489 97.0499 26.6386 96.5671 25.5783C96.0844 24.5181 95.8431 23.3695 95.8431 22.1325C95.8431 20.4538 96.1612 18.9628 96.7975 17.6596C97.4338 16.3343 98.3115 15.3072 99.4305 14.5783C100.55 13.8273 101.789 13.4518 103.15 13.4518C104.817 13.4518 106.156 14.0371 107.165 15.2078C108.196 16.3564 108.799 17.7811 108.975 19.4819C110.006 19.4157 111.235 19.1948 112.661 18.8193C112.837 18.7751 112.99 18.753 113.122 18.753ZM102.327 25.5783C103.029 25.5783 103.632 25.2912 104.137 24.7169C104.664 24.1426 105.015 23.3143 105.19 22.2319C104.51 21.7681 103.983 21.1606 103.61 20.4096C103.259 19.6586 103.084 18.8635 103.084 18.0241C103.084 17.6707 103.117 17.3173 103.182 16.9639H103.018C102.14 16.9639 101.405 17.3946 100.813 18.256C100.242 19.0954 99.9571 20.2881 99.9571 21.8343C99.9571 23.0492 100.187 23.9769 100.648 24.6175C101.131 25.258 101.69 25.5783 102.327 25.5783Z" fill="white"/>
<path d="M122.705 13.4849C123.21 13.4849 123.561 13.5512 123.758 13.6837C123.956 13.8163 124.054 14.0371 124.054 14.3464C124.054 14.8765 123.769 16.7651 123.199 20.012C122.694 23.1265 122.398 24.9709 122.31 25.5452C121.498 31.2219 120.379 35.7169 118.953 39.0301C117.527 42.3434 115.629 44 113.259 44C112.14 44 111.23 43.6466 110.528 42.9398C109.825 42.255 109.474 41.3494 109.474 40.2229C109.474 39.1847 109.705 38.1245 110.166 37.0422C110.648 35.9598 111.526 34.7118 112.799 33.2982C114.093 31.9066 115.914 30.3052 118.262 28.494L118.361 27.7319C118.514 26.9147 118.69 25.744 118.887 24.2199C118.448 25.8102 117.834 27.0251 117.044 27.8645C116.254 28.6817 115.421 29.0904 114.543 29.0904C113.555 29.0904 112.744 28.6375 112.107 27.7319C111.493 26.8042 111.186 25.6556 111.186 24.2861C111.186 22.6295 111.296 21.1165 111.515 19.747C111.734 18.3554 112.096 16.8865 112.601 15.3404C112.82 14.6777 113.128 14.2028 113.523 13.9157C113.918 13.6285 114.543 13.4849 115.399 13.4849C115.881 13.4849 116.21 13.5622 116.386 13.7169C116.583 13.8715 116.682 14.1034 116.682 14.4126C116.682 14.5894 116.561 15.1857 116.32 16.2018C116.101 17.0191 115.925 17.759 115.794 18.4217C115.618 19.3273 115.464 20.1998 115.333 21.0392C115.201 21.8564 115.135 22.5301 115.135 23.0602C115.135 23.8996 115.366 24.3193 115.826 24.3193C116.156 24.3193 116.561 23.988 117.044 23.3253C117.549 22.6626 118.075 21.6576 118.624 20.3102C119.194 18.9628 119.743 17.3062 120.27 15.3404C120.445 14.6777 120.708 14.2028 121.059 13.9157C121.432 13.6285 121.981 13.4849 122.705 13.4849ZM113.621 40.7861C114.17 40.7861 114.784 40.1456 115.464 38.8645C116.145 37.5833 116.825 35.4518 117.505 32.4699C115.815 33.9056 114.587 35.2088 113.819 36.3795C113.073 37.5723 112.7 38.6104 112.7 39.494C112.7 39.8695 112.766 40.1787 112.897 40.4217C113.051 40.6647 113.292 40.7861 113.621 40.7861Z" fill="white"/>
<path d="M131.932 29.8193C130.791 29.8193 129.913 29.5542 129.299 29.0241C128.706 28.494 128.41 27.8976 128.41 27.2349C128.41 26.6606 128.618 26.1637 129.035 25.744C129.452 25.3243 130.067 25.1145 130.878 25.1145C131.164 25.1145 131.493 25.1476 131.866 25.2139C132.261 25.258 132.557 25.2912 132.754 25.3133C132.732 24.739 132.601 24.1978 132.359 23.6898C132.14 23.1817 131.855 22.6958 131.504 22.2319C131.153 21.746 130.823 21.3263 130.516 20.9729C129.836 22.2761 129.156 23.3584 128.476 24.2199C127.818 25.0813 127.093 25.8986 126.304 26.6717C125.909 27.0693 125.492 27.2681 125.053 27.2681C124.702 27.2681 124.417 27.1466 124.197 26.9036C123.978 26.6386 123.868 26.3183 123.868 25.9428C123.868 25.501 124.022 25.0924 124.329 24.7169L124.757 24.1867C125.963 22.6847 126.874 21.4478 127.488 20.4759C127.883 19.8353 128.278 19.0733 128.673 18.1898C129.09 17.3062 129.628 16.1024 130.286 14.5783C130.703 13.6064 131.569 13.1205 132.886 13.1205C133.5 13.1205 133.928 13.1757 134.17 13.2861C134.411 13.3966 134.532 13.5733 134.532 13.8163C134.532 13.9488 134.488 14.1586 134.4 14.4458C134.312 14.7329 134.191 15.0201 134.038 15.3072C133.643 16.1024 133.445 16.7761 133.445 17.3283C133.445 17.6596 133.555 18.0241 133.775 18.4217C134.016 18.8193 134.378 19.3163 134.861 19.9126C135.563 20.8404 136.089 21.6355 136.44 22.2982C136.813 22.9388 137 23.6456 137 24.4187C137 25.3464 136.781 26.2299 136.342 27.0693C135.925 27.8865 135.332 28.5492 134.564 29.0572C133.797 29.5653 132.919 29.8193 131.932 29.8193Z" fill="white"/>
</svg>
