<svg width="31" height="32" viewBox="0 0 31 32" fill="none" xmlns="http://www.w3.org/2000/svg">
<path d="M4.3935 25.5703C7.64394 23.7331 11.3992 22.6845 15.3993 22.6845C19.3994 22.6845 23.1546 23.7331 26.4051 25.5703M20.1991 13.085C20.1991 15.7359 18.0502 17.8847 15.3993 17.8847C12.7484 17.8847 10.5995 15.7359 10.5995 13.085C10.5995 10.4341 12.7484 8.28521 15.3993 8.28521C18.0502 8.28521 20.1991 10.4341 20.1991 13.085ZM29.7986 16.2848C29.7986 24.2374 23.3519 30.6841 15.3993 30.6841C7.44679 30.6841 1 24.2374 1 16.2848C1 8.33231 7.44679 1.88553 15.3993 1.88553C23.3519 1.88553 29.7986 8.33231 29.7986 16.2848Z" fill="#FF7DD2"/>
<path d="M4.3935 25.5703C7.64394 23.7331 11.3992 22.6845 15.3993 22.6845C19.3994 22.6845 23.1546 23.7331 26.4051 25.5703M20.1991 13.085C20.1991 15.7359 18.0502 17.8847 15.3993 17.8847C12.7484 17.8847 10.5995 15.7359 10.5995 13.085C10.5995 10.4341 12.7484 8.28521 15.3993 8.28521C18.0502 8.28521 20.1991 10.4341 20.1991 13.085ZM29.7986 16.2848C29.7986 24.2374 23.3519 30.6841 15.3993 30.6841C7.44679 30.6841 1 24.2374 1 16.2848C1 8.33231 7.44679 1.88553 15.3993 1.88553C23.3519 1.88553 29.7986 8.33231 29.7986 16.2848Z" stroke="white" stroke-width="2" stroke-linecap="round" stroke-linejoin="round"/>
</svg>
